<svg width="24" height="25" viewBox="0 0 24 25" fill="none" xmlns="http://www.w3.org/2000/svg">
<path d="M8 22.998C8.55228 22.998 9 22.5503 9 21.998C9 21.4458 8.55228 20.998 8 20.998C7.44772 20.998 7 21.4458 7 21.998C7 22.5503 7.44772 22.998 8 22.998Z" stroke="#005FDF" stroke-width="2" stroke-linecap="round" stroke-linejoin="round"/>
<path d="M19 22.998C19.5523 22.998 20 22.5503 20 21.998C20 21.4458 19.5523 20.998 19 20.998C18.4477 20.998 18 21.4458 18 21.998C18 22.5503 18.4477 22.998 19 22.998Z" stroke="#005FDF" stroke-width="2" stroke-linecap="round" stroke-linejoin="round"/>
<path d="M2.0498 3.0481H4.0498L6.7098 15.4681C6.80738 15.923 7.06048 16.3296 7.42552 16.618C7.79056 16.9063 8.24471 17.0584 8.7098 17.0481H18.4898C18.945 17.0474 19.3863 16.8914 19.7408 16.6059C20.0954 16.3205 20.3419 15.9226 20.4398 15.4781L22.0898 8.0481H5.1198" stroke="#005FDF" stroke-width="2" stroke-linecap="round" stroke-linejoin="round"/>
</svg>
