<svg width="44" height="44" viewBox="0 0 44 44" fill="none" xmlns="http://www.w3.org/2000/svg">
<mask id="path-1-inside-1_9_107" fill="white">
<path d="M44 0L27.5659 0.0191284C27.5659 0.0191284 28.296 2.37193 29.0092 3.34375C30.2223 4.99644 35.2148 3.60053 34.5228 6.6762H39.6315C40.2765 6.0249 40.9421 5.19613 41.0206 4.48903C41.1161 3.62993 39.6213 2.98432 39.8873 2.16273C40.3687 0.67724 44 0 44 0ZM21.9472 1.19996L1.14854 20.8424L4.16084 22.8744L21.9472 6.37668L39.7336 22.8744L42.7459 20.8424L21.9472 1.19987V1.19996ZM34.5807 8.35577V10.8336L38.8226 14.8397V8.35577H34.5807ZM21.9472 8.6552L17.6424 12.648H26.252L21.9472 8.6552ZM15.8317 14.3276L12.8138 17.1269H24.0682V14.3276H15.8317ZM25.728 14.3276V17.1269H31.0807L28.0627 14.3276H25.728ZM11.0029 18.8064L7.8156 21.7629L13.7401 21.736V18.8064H11.0029ZM15.3999 18.8064V21.7285L35.9418 21.6358L32.8915 18.8064H15.3999ZM37.7439 23.3073L5.99583 23.4507L4.32295 25.0025L4.23701 24.9444C4.21509 25.3407 4.11441 25.7285 3.941 26.0846H39.9534C39.78 25.7285 39.6793 25.3408 39.6573 24.9444L39.5714 25.0024L37.7438 23.3073H37.7439ZM1.29101 23.4719C0.568138 23.4719 0 24.0468 0 24.7782C0 25.5097 0.568138 26.0846 1.29101 26.0846C2.01389 26.0846 2.58202 25.5097 2.58202 24.7782C2.58202 24.0468 2.01389 23.4719 1.29101 23.4719ZM42.6034 23.4719C41.8805 23.4719 41.3124 24.0468 41.3124 24.7782C41.3124 25.5097 41.8805 26.0846 42.6034 26.0846C43.3263 26.0846 43.8944 25.5097 43.8944 24.7782C43.8944 24.0468 43.3263 23.4719 42.6034 23.4719ZM3.84131 27.7641C4.08553 28.186 4.22247 28.6625 4.23985 29.1511C4.25723 29.6396 4.15452 30.1249 3.94091 30.5634H7.83829V27.7641H3.84131ZM9.49816 27.7641V35.0423H13.7401V27.7641H9.49816ZM15.3999 27.7641V35.0423H19.6418V27.7641H15.3999ZM21.3017 27.7641V30.5634H24.0682V27.7641H21.3017ZM25.728 27.7641V44H34.3963V27.7641H25.728ZM36.0561 27.7641V30.5634H39.9535C39.7399 30.1249 39.6372 29.6396 39.6546 29.1511C39.6719 28.6625 39.8089 28.186 40.0531 27.7641H36.0561ZM1.29101 27.9508C0.568138 27.9508 0 28.5256 0 29.2571C0 29.9886 0.568138 30.5634 1.29101 30.5634C2.01389 30.5634 2.58202 29.9886 2.58202 29.2571C2.58202 28.5256 2.01389 27.9508 1.29101 27.9508ZM42.6034 27.9508C41.8805 27.9508 41.3124 28.5256 41.3124 29.2571C41.3124 29.9886 41.8805 30.5634 42.6034 30.5634C43.3263 30.5634 43.8944 29.9886 43.8944 29.2571C43.8944 28.5256 43.3263 27.9508 42.6034 27.9508ZM3.84131 32.243C4.08553 32.6648 4.22247 33.1414 4.23985 33.6299C4.25723 34.1185 4.15452 34.6038 3.94091 35.0423H7.83829V32.243H3.84131ZM21.3017 32.243V35.0423H24.0682V32.243H21.3017ZM36.0561 32.243V35.0423H39.9535C39.7399 34.6038 39.6372 34.1185 39.6546 33.6299C39.6719 33.1414 39.8089 32.6648 40.0531 32.243H36.0561ZM1.29101 32.4296C0.568138 32.4296 0 33.0045 0 33.736C0 34.4674 0.568138 35.0423 1.29101 35.0423C2.01389 35.0423 2.58202 34.4674 2.58202 33.736C2.58202 33.0045 2.01389 32.4296 1.29101 32.4296ZM42.6034 32.4296C41.8805 32.4296 41.3124 33.0045 41.3124 33.736C41.3124 34.4674 41.8805 35.0423 42.6034 35.0423C43.3263 35.0423 43.8944 34.4674 43.8944 33.736C43.8944 33.0045 43.3263 32.4296 42.6034 32.4296ZM30.7999 35.0423H32.8286V36.7219H30.7999V35.0423ZM3.84131 36.7219C4.08553 37.1437 4.22247 37.6202 4.23985 38.1088C4.25723 38.5974 4.15452 39.0826 3.94091 39.5211H24.0682V36.7219H3.84131ZM36.0561 36.7219V39.5211H39.9535C39.7399 39.0826 39.6372 38.5974 39.6546 38.1088C39.6719 37.6202 39.8089 37.1437 40.0531 36.7219H36.0561ZM1.29101 36.9085C0.568138 36.9085 0 37.4834 0 38.2148C0 38.9463 0.568138 39.5211 1.29101 39.5211C2.01389 39.5211 2.58202 38.9463 2.58202 38.2148C2.58202 37.4834 2.01389 36.9085 1.29101 36.9085ZM42.6034 36.9085C41.8805 36.9085 41.3124 37.4834 41.3124 38.2148C41.3124 38.9463 41.8805 39.5211 42.6034 39.5211C43.3263 39.5211 43.8944 38.9463 43.8944 38.2148C43.8944 37.4834 43.3263 36.9085 42.6034 36.9085ZM1.29101 41.2007C0.568138 41.2007 0 41.7756 0 42.507C0 43.2385 0.568138 43.8134 1.29101 43.8134C2.01389 43.8134 2.58202 43.2385 2.58202 42.507C2.58202 41.7756 2.01389 41.2007 1.29101 41.2007ZM3.94091 41.2007C4.15452 41.6392 4.25723 42.1245 4.23985 42.6131C4.22247 43.1016 4.08553 43.5782 3.84131 44H6.36285V41.2007H3.94091ZM8.02272 41.2007V44H24.0682V41.2007H8.02272ZM36.0561 41.2007V44H40.0531C39.8089 43.5782 39.6719 43.1016 39.6546 42.6131C39.6372 42.1245 39.7399 41.6392 39.9535 41.2007H36.0561ZM42.6034 41.2007C41.8805 41.2007 41.3124 41.7756 41.3124 42.507C41.3124 43.2385 41.8805 43.8134 42.6034 43.8134C43.3263 43.8134 43.8944 43.2385 43.8944 42.507C43.8944 41.7756 43.3263 41.2007 42.6034 41.2007Z"/>
</mask>
<path d="M44 0L27.5659 0.0191284C27.5659 0.0191284 28.296 2.37193 29.0092 3.34375C30.2223 4.99644 35.2148 3.60053 34.5228 6.6762H39.6315C40.2765 6.0249 40.9421 5.19613 41.0206 4.48903C41.1161 3.62993 39.6213 2.98432 39.8873 2.16273C40.3687 0.67724 44 0 44 0ZM21.9472 1.19996L1.14854 20.8424L4.16084 22.8744L21.9472 6.37668L39.7336 22.8744L42.7459 20.8424L21.9472 1.19987V1.19996ZM34.5807 8.35577V10.8336L38.8226 14.8397V8.35577H34.5807ZM21.9472 8.6552L17.6424 12.648H26.252L21.9472 8.6552ZM15.8317 14.3276L12.8138 17.1269H24.0682V14.3276H15.8317ZM25.728 14.3276V17.1269H31.0807L28.0627 14.3276H25.728ZM11.0029 18.8064L7.8156 21.7629L13.7401 21.736V18.8064H11.0029ZM15.3999 18.8064V21.7285L35.9418 21.6358L32.8915 18.8064H15.3999ZM37.7439 23.3073L5.99583 23.4507L4.32295 25.0025L4.23701 24.9444C4.21509 25.3407 4.11441 25.7285 3.941 26.0846H39.9534C39.78 25.7285 39.6793 25.3408 39.6573 24.9444L39.5714 25.0024L37.7438 23.3073H37.7439ZM1.29101 23.4719C0.568138 23.4719 0 24.0468 0 24.7782C0 25.5097 0.568138 26.0846 1.29101 26.0846C2.01389 26.0846 2.58202 25.5097 2.58202 24.7782C2.58202 24.0468 2.01389 23.4719 1.29101 23.4719ZM42.6034 23.4719C41.8805 23.4719 41.3124 24.0468 41.3124 24.7782C41.3124 25.5097 41.8805 26.0846 42.6034 26.0846C43.3263 26.0846 43.8944 25.5097 43.8944 24.7782C43.8944 24.0468 43.3263 23.4719 42.6034 23.4719ZM3.84131 27.7641C4.08553 28.186 4.22247 28.6625 4.23985 29.1511C4.25723 29.6396 4.15452 30.1249 3.94091 30.5634H7.83829V27.7641H3.84131ZM9.49816 27.7641V35.0423H13.7401V27.7641H9.49816ZM15.3999 27.7641V35.0423H19.6418V27.7641H15.3999ZM21.3017 27.7641V30.5634H24.0682V27.7641H21.3017ZM25.728 27.7641V44H34.3963V27.7641H25.728ZM36.0561 27.7641V30.5634H39.9535C39.7399 30.1249 39.6372 29.6396 39.6546 29.1511C39.6719 28.6625 39.8089 28.186 40.0531 27.7641H36.0561ZM1.29101 27.9508C0.568138 27.9508 0 28.5256 0 29.2571C0 29.9886 0.568138 30.5634 1.29101 30.5634C2.01389 30.5634 2.58202 29.9886 2.58202 29.2571C2.58202 28.5256 2.01389 27.9508 1.29101 27.9508ZM42.6034 27.9508C41.8805 27.9508 41.3124 28.5256 41.3124 29.2571C41.3124 29.9886 41.8805 30.5634 42.6034 30.5634C43.3263 30.5634 43.8944 29.9886 43.8944 29.2571C43.8944 28.5256 43.3263 27.9508 42.6034 27.9508ZM3.84131 32.243C4.08553 32.6648 4.22247 33.1414 4.23985 33.6299C4.25723 34.1185 4.15452 34.6038 3.94091 35.0423H7.83829V32.243H3.84131ZM21.3017 32.243V35.0423H24.0682V32.243H21.3017ZM36.0561 32.243V35.0423H39.9535C39.7399 34.6038 39.6372 34.1185 39.6546 33.6299C39.6719 33.1414 39.8089 32.6648 40.0531 32.243H36.0561ZM1.29101 32.4296C0.568138 32.4296 0 33.0045 0 33.736C0 34.4674 0.568138 35.0423 1.29101 35.0423C2.01389 35.0423 2.58202 34.4674 2.58202 33.736C2.58202 33.0045 2.01389 32.4296 1.29101 32.4296ZM42.6034 32.4296C41.8805 32.4296 41.3124 33.0045 41.3124 33.736C41.3124 34.4674 41.8805 35.0423 42.6034 35.0423C43.3263 35.0423 43.8944 34.4674 43.8944 33.736C43.8944 33.0045 43.3263 32.4296 42.6034 32.4296ZM30.7999 35.0423H32.8286V36.7219H30.7999V35.0423ZM3.84131 36.7219C4.08553 37.1437 4.22247 37.6202 4.23985 38.1088C4.25723 38.5974 4.15452 39.0826 3.94091 39.5211H24.0682V36.7219H3.84131ZM36.0561 36.7219V39.5211H39.9535C39.7399 39.0826 39.6372 38.5974 39.6546 38.1088C39.6719 37.6202 39.8089 37.1437 40.0531 36.7219H36.0561ZM1.29101 36.9085C0.568138 36.9085 0 37.4834 0 38.2148C0 38.9463 0.568138 39.5211 1.29101 39.5211C2.01389 39.5211 2.58202 38.9463 2.58202 38.2148C2.58202 37.4834 2.01389 36.9085 1.29101 36.9085ZM42.6034 36.9085C41.8805 36.9085 41.3124 37.4834 41.3124 38.2148C41.3124 38.9463 41.8805 39.5211 42.6034 39.5211C43.3263 39.5211 43.8944 38.9463 43.8944 38.2148C43.8944 37.4834 43.3263 36.9085 42.6034 36.9085ZM1.29101 41.2007C0.568138 41.2007 0 41.7756 0 42.507C0 43.2385 0.568138 43.8134 1.29101 43.8134C2.01389 43.8134 2.58202 43.2385 2.58202 42.507C2.58202 41.7756 2.01389 41.2007 1.29101 41.2007ZM3.94091 41.2007C4.15452 41.6392 4.25723 42.1245 4.23985 42.6131C4.22247 43.1016 4.08553 43.5782 3.84131 44H6.36285V41.2007H3.94091ZM8.02272 41.2007V44H24.0682V41.2007H8.02272ZM36.0561 41.2007V44H40.0531C39.8089 43.5782 39.6719 43.1016 39.6546 42.6131C39.6372 42.1245 39.7399 41.6392 39.9535 41.2007H36.0561ZM42.6034 41.2007C41.8805 41.2007 41.3124 41.7756 41.3124 42.507C41.3124 43.2385 41.8805 43.8134 42.6034 43.8134C43.3263 43.8134 43.8944 43.2385 43.8944 42.507C43.8944 41.7756 43.3263 41.2007 42.6034 41.2007Z" fill="#E6AF2E" stroke="black" mask="url(#path-1-inside-1_9_107)"/>
</svg>
