<svg width="22" height="22" viewBox="0 0 22 22" fill="none" xmlns="http://www.w3.org/2000/svg">
<path d="M20.8881 15.9221V18.9221C20.8892 19.2006 20.8322 19.4762 20.7206 19.7314C20.6091 19.9866 20.4454 20.2156 20.2402 20.4039C20.035 20.5922 19.7927 20.7355 19.5289 20.8248C19.265 20.914 18.9855 20.9471 18.7081 20.9221C15.631 20.5877 12.6751 19.5362 10.0781 17.8521C7.66194 16.3167 5.61345 14.2682 4.07812 11.8521C2.38809 9.24325 1.33636 6.27304 1.00812 3.18205C0.983127 2.90552 1.01599 2.62681 1.10462 2.36367C1.19324 2.10054 1.33569 1.85874 1.52288 1.65367C1.71008 1.4486 1.93792 1.28476 2.19191 1.17257C2.44589 1.06038 2.72046 1.00231 2.99812 1.00205H5.99812C6.48342 0.997274 6.95391 1.16913 7.32188 1.48558C7.68985 1.80204 7.93019 2.2415 7.99812 2.72205C8.12474 3.68212 8.35957 4.62478 8.69812 5.53205C8.83266 5.88997 8.86178 6.27896 8.78202 6.65293C8.70227 7.0269 8.51698 7.37016 8.24812 7.64205L6.97812 8.91205C8.40167 11.4156 10.4746 13.4885 12.9781 14.9121L14.2481 13.6421C14.52 13.3732 14.8633 13.1879 15.2372 13.1081C15.6112 13.0284 16.0002 13.0575 16.3581 13.192C17.2654 13.5306 18.2081 13.7654 19.1681 13.8921C19.6539 13.9606 20.0975 14.2053 20.4146 14.5795C20.7318 14.9538 20.9003 15.4316 20.8881 15.9221Z" stroke="#E6AF2E" stroke-width="2" stroke-linecap="round" stroke-linejoin="round"/>
<path d="M12 1.00195C14.0383 1.21672 15.9422 2.12075 17.3969 3.56453C18.8516 5.00832 19.7699 6.90537 20 8.94195" stroke="#E6AF2E" stroke-width="2" stroke-linecap="round" stroke-linejoin="round"/>
<path d="M12 5.00195C12.9835 5.19589 13.886 5.68098 14.5904 6.39426C15.2947 7.10754 15.7684 8.01608 15.95 9.00195" stroke="#E6AF2E" stroke-width="2" stroke-linecap="round" stroke-linejoin="round"/>
</svg>
