<svg width="15" height="15" viewBox="0 0 15 15" fill="none" xmlns="http://www.w3.org/2000/svg">
<path d="M12.2744 9.258C11.7685 8.75849 11.1368 8.75849 10.6341 9.258C10.2506 9.63828 9.86711 10.0186 9.49006 10.4053C9.38693 10.5116 9.29992 10.5342 9.17424 10.4633C8.92609 10.3279 8.66183 10.2184 8.42336 10.0701C7.31154 9.37079 6.38019 8.47167 5.55518 7.45975C5.1459 6.95702 4.78174 6.41883 4.52715 5.81297C4.47559 5.69051 4.48526 5.60994 4.58516 5.51004C4.96866 5.13943 5.34249 4.75916 5.71954 4.37888C6.24483 3.85037 6.24483 3.23161 5.71632 2.69987C5.41661 2.39694 5.1169 2.10046 4.81719 1.79753C4.50782 1.48815 4.20166 1.17555 3.88907 0.869399C3.38311 0.376331 2.75146 0.376331 2.24873 0.872622C1.86201 1.2529 1.4914 1.64284 1.09824 2.01667C0.734076 2.36149 0.550384 2.78366 0.511712 3.27673C0.450481 4.07918 0.647064 4.8365 0.924213 5.57449C1.4914 7.10204 2.35508 8.45878 3.40244 9.70273C4.81719 11.385 6.50587 12.7159 8.48136 13.6763C9.37082 14.1081 10.2925 14.44 11.2948 14.4948C11.9844 14.5335 12.5838 14.3595 13.064 13.8213C13.3927 13.4539 13.7633 13.1188 14.1114 12.7675C14.627 12.2454 14.6302 11.6138 14.1178 11.0981C13.5055 10.4826 12.89 9.87031 12.2744 9.258Z" fill="#838D95"/>
</svg>
